<?xml version="1.0" encoding="UTF-8" standalone="no"?>
<!-- Created with Inkscape (http://www.inkscape.org/) -->

<svg
   xmlns:dc="http://purl.org/dc/elements/1.1/"
   xmlns:cc="http://creativecommons.org/ns#"
   xmlns:rdf="http://www.w3.org/1999/02/22-rdf-syntax-ns#"
   xmlns:svg="http://www.w3.org/2000/svg"
   xmlns="http://www.w3.org/2000/svg"
   xmlns:sodipodi="http://sodipodi.sourceforge.net/DTD/sodipodi-0.dtd"
   xmlns:inkscape="http://www.inkscape.org/namespaces/inkscape"
   width="468px"
   height="60px"
   id="svg3193"
   version="1.1"
   inkscape:version="0.48.4 r9939"
   sodipodi:docname="agderkultur logo.svg"
   inkscape:export-filename="/home/matias/desktop/agderkultur laaaogo.png"
   inkscape:export-xdpi="90"
   inkscape:export-ydpi="90">
  <defs
     id="defs3195">
    <inkscape:perspective
       sodipodi:type="inkscape:persp3d"
       inkscape:vp_x="0 : 30 : 1"
       inkscape:vp_y="0 : 1000 : 0"
       inkscape:vp_z="468 : 30 : 1"
       inkscape:persp3d-origin="234 : 20 : 1"
       id="perspective4040" />
  </defs>
  <sodipodi:namedview
     id="base"
     pagecolor="#ffffff"
     bordercolor="#666666"
     borderopacity="1.0"
     inkscape:pageopacity="0.0"
     inkscape:pageshadow="2"
     inkscape:zoom="2.4"
     inkscape:cx="151.69231"
     inkscape:cy="19.870321"
     inkscape:document-units="px"
     inkscape:current-layer="layer1"
     showgrid="false"
     inkscape:window-width="1920"
     inkscape:window-height="1176"
     inkscape:window-x="1920"
     inkscape:window-y="24"
     inkscape:window-maximized="1" />
  <metadata
     id="metadata3198">
    <rdf:RDF>
      <cc:Work
         rdf:about="">
        <dc:format>image/svg+xml</dc:format>
        <dc:type
           rdf:resource="http://purl.org/dc/dcmitype/StillImage" />
        <dc:title></dc:title>
      </cc:Work>
    </rdf:RDF>
  </metadata>
  <g
     id="layer1"
     inkscape:label="Layer 1"
     inkscape:groupmode="layer">
    <text
       xml:space="preserve"
       style="font-size:40px;font-style:oblique;font-weight:bold;line-height:125%;letter-spacing:0px;word-spacing:0px;fill:#000000;fill-opacity:1;stroke:none;font-family:Purisa;-inkscape-font-specification:Purisa Bold Oblique;font-stretch:normal;font-variant:normal"
       x="70.416054"
       y="24.644661"
       id="text3275"
       sodipodi:linespacing="125%"><tspan
         sodipodi:role="line"
         id="tspan3277"></tspan></text>
    <path
       style="fill:#aa0000"
       id="path3337"
       d="m 66.868388,9.5934408 c -1.320764,2.8388152 -2.841107,5.5646762 -4.425596,8.2535312 -3.685545,6.090163 -8.110769,11.636936 -12.698757,17.016367 -3.863695,4.369389 -7.972649,8.537297 -12.533747,12.135318 -0.66111,0.521516 -1.346218,1.009869 -2.019326,1.514802 -2.167285,1.480867 -1.127604,0.808403 -3.108684,2.034321 0,0 -6.008666,2.378563 -6.008666,2.378563 l 0,0 c 2.18885,-1.259466 1.046398,-0.567919 3.416609,-2.093406 0.719362,-0.513308 1.452053,-1.007307 2.158089,-1.539923 4.708762,-3.552165 8.936021,-7.736825 12.876324,-12.160323 0.847475,-0.991614 1.710702,-1.969148 2.542422,-2.974843 3.569471,-4.316105 6.879156,-8.873363 9.732203,-13.7267 1.403328,-2.530255 2.791166,-5.088892 3.755914,-7.838441 0,0 6.313215,-2.9992662 6.313215,-2.9992662 z"
       inkscape:connector-curvature="0"
       inkscape:export-filename="/home/matias/desktop/path4002-6-0.png"
       inkscape:export-xdpi="210"
       inkscape:export-ydpi="210" />
    <path
       style="fill:#aa0000"
       id="path3351"
       d="m 66.860977,9.5822385 c 0.05001,2.2674255 0.385732,4.4774845 0.7507,6.6522695 0.701492,3.829617 1.672051,7.513477 2.832776,11.021947 0.269437,0.814418 0.55955,1.609652 0.839325,2.414478 1.155573,3.119563 2.485258,6.064445 4.003225,8.728596 0.802178,1.407884 1.2831,2.09191 2.136318,3.386374 1.510552,2.146436 3.148914,4.061444 5.00563,5.283681 0.429755,0.197221 0.998354,0.562766 1.38592,0.01717 0,0 -2.988527,3.878928 -2.988527,3.878928 l 0,0 C 80.325989,51.012762 79.855456,50.735404 79.406849,50.385974 77.637207,48.889562 76.05107,46.893562 74.583176,44.684633 73.73154,43.327642 73.28811,42.663272 72.481943,41.201589 70.977479,38.473801 69.647612,35.495087 68.472264,32.358113 68.184907,31.552139 67.888424,30.754876 67.610192,29.94019 66.414196,26.43822 65.387583,22.77646 64.57475,18.984936 64.141715,16.84888 63.768438,14.690288 63.48591,12.485348 c 0,0 3.375067,-2.9031105 3.375067,-2.9031105 z"
       inkscape:connector-curvature="0"
       inkscape:export-filename="/home/matias/desktop/path4002-6-0.png"
       inkscape:export-xdpi="210.3"
       inkscape:export-ydpi="210.3" />
    <path
       style="fill:#aa0000"
       id="path3353"
       d="m 38.515719,27.543351 c 2.940737,0.601993 6.103135,0.802071 9.188004,1.037706 7.754373,0.582059 15.574263,0.465419 23.355644,0.172505 6.602114,-0.307935 13.131169,-0.973113 19.550179,-1.879386 1.428401,-0.204643 2.830974,-0.457641 4.224981,-0.724899 0,0 -8.397356,3.638437 -8.397356,3.638437 l 0,0 c -1.299366,0.194872 -2.602153,0.382759 -3.917416,0.541628 -6.295634,0.745769 -12.664523,1.309821 -19.086436,1.57124 -7.951043,0.263924 -15.928549,0.366539 -23.867973,-0.08607 -3.36903,-0.18829 -6.7645,-0.36063 -10.04729,-0.849319 0,0 8.997663,-3.421846 8.997663,-3.421846 z"
       inkscape:connector-curvature="0"
       inkscape:export-filename="/home/matias/desktop/path4002-6-0.png"
       inkscape:export-xdpi="210.3"
       inkscape:export-ydpi="210.3" />
    <path
       style="fill:#aa0000"
       id="path3387"
       d="m 143.28647,19.557072 c 0.14359,1.651361 0.22571,3.306837 0.29309,4.963317 0.13098,3.178516 0.10927,6.358976 0.009,9.537698 -0.11679,3.409478 -0.47131,6.801573 -1.0176,10.162893 -0.18098,1.069683 -0.4358,2.121982 -0.70186,3.170846 0,0 -3.99287,1.986971 -3.99287,1.986971 l 0,0 c 0.32614,-1.050865 0.63667,-2.107323 0.85,-3.191434 0.62316,-3.343686 1.01619,-6.728804 1.11281,-10.137279 0.0796,-3.147188 0.0814,-6.296726 -0.11136,-9.440178 -0.10262,-1.60993 -0.19352,-3.231942 -0.5119,-4.814217 0,0 4.07068,-2.238617 4.07068,-2.238617 z"
       inkscape:connector-curvature="0"
       inkscape:export-filename="/home/matias/desktop/path4002-6-0.png"
       inkscape:export-xdpi="210.3"
       inkscape:export-ydpi="210.3" />
    <path
       style="fill:#aa0000"
       id="path3391"
       d="m 149.57055,13.958522 c 1.72891,1.352805 3.54076,2.607549 5.3545,3.856483 2.72379,1.826653 5.21666,3.90644 7.45019,6.246774 1.66128,1.833929 3.0327,3.907345 3.65919,6.267053 0.11479,0.432403 0.17683,0.875752 0.26526,1.31363 0.26667,2.157155 -0.0626,4.351874 -1.09271,6.308507 -0.20949,0.397918 -0.47212,0.768943 -0.70818,1.153415 -0.86012,1.051177 -0.94155,1.234061 -1.9826,2.161204 -2.90044,2.583091 -6.99031,4.431726 -10.31588,6.235385 -3.24848,1.580683 -6.60071,2.957767 -9.94623,4.342527 -1.19474,0.478889 -2.39094,0.954085 -3.59263,1.417242 0,0 4.28921,-3.181685 4.28921,-3.181685 l 0,0 c 1.16244,-0.437368 2.32154,-0.88242 3.47264,-1.34588 3.32823,-1.362172 6.65783,-2.732924 9.86141,-4.344012 -0.95399,0.528038 -1.89085,1.084549 -2.86195,1.584116 -0.52689,0.271054 1.02733,-0.586092 1.52816,-0.897961 1.74158,-1.084473 3.36956,-2.337062 4.63101,-3.918377 0.24263,-0.362535 0.51169,-0.710499 0.72789,-1.087602 1.06232,-1.852909 1.45363,-3.960673 1.24322,-6.045618 -0.076,-0.422061 -0.12563,-0.849135 -0.22821,-1.266182 -0.56584,-2.300468 -1.89036,-4.317917 -3.49592,-6.101009 -2.20776,-2.319573 -4.68515,-4.36944 -7.40665,-6.145011 -1.87297,-1.249916 -3.73491,-2.516251 -5.64567,-3.714533 0,0 4.79395,-2.838466 4.79395,-2.838466 z"
       inkscape:connector-curvature="0"
       inkscape:export-filename="/home/matias/desktop/path4002-6-0.png"
       inkscape:export-xdpi="210.3"
       inkscape:export-ydpi="210.3" />
    <path
       style="fill:#aa0000"
       id="path3395"
       d="m 179.37655,18.73396 c -0.63098,2.24291 -1.14645,4.5168 -1.64503,6.792224 -0.75148,3.570718 -1.38007,7.165554 -2.058,10.750587 -0.46693,2.237092 -0.85764,4.489375 -1.31713,6.727845 -0.15505,0.705024 -0.0808,0.374514 -0.22171,0.991763 0,0 -4.68134,2.235237 -4.68134,2.235237 l 0,0 c 0.18779,-0.630056 0.0892,-0.29326 0.29418,-1.010817 0.59336,-2.253866 1.02193,-4.547566 1.54514,-6.818052 0.73122,-3.576535 1.37429,-7.169752 2.05634,-10.755841 0.43839,-2.217414 0.9296,-4.427172 1.29406,-6.657777 0,0 4.73349,-2.255169 4.73349,-2.255169 z"
       inkscape:connector-curvature="0"
       inkscape:export-filename="/home/matias/desktop/path4002-6-0.png"
       inkscape:export-xdpi="210.3"
       inkscape:export-ydpi="210.3" />
    <path
       style="fill:#aa0000"
       id="path3397"
       d="m 184.2032,18.680574 c 1.84652,0.07043 3.6948,0.08553 5.54244,0.07449 3.48585,-0.02654 6.96996,-0.167153 10.44836,-0.391856 2.75782,-0.273479 5.52353,-0.315741 8.28465,-0.09688 0,0 -4.04807,2.895702 -4.04807,2.895702 l 0,0 c -2.72052,-0.18634 -5.44271,-0.134217 -8.16106,0.08791 -3.49874,0.186086 -7.00003,0.324365 -10.50287,0.404459 -1.93846,0.04171 -3.87769,0.04999 -5.81556,0.115504 0,0 4.25211,-3.08934 4.25211,-3.08934 z"
       inkscape:connector-curvature="0"
       inkscape:export-filename="/home/matias/desktop/path4002-6-0.png"
       inkscape:export-xdpi="210.3"
       inkscape:export-ydpi="210.3" />
    <path
       style="fill:#aa0000"
       id="path3399"
       d="m 181.73852,31.769332 c 2.61553,0.07605 5.23379,0.08152 7.85086,0.09576 3.60595,-0.01366 7.20901,-0.134166 10.81056,-0.261601 0,0 -5.27487,2.967825 -5.27487,2.967825 l 0,0 c -3.57114,0.07223 -7.14222,0.153061 -10.71446,0.185403 -2.73142,0.01458 -5.4638,0.02216 -8.19386,0.09576 0,0 5.52177,-3.083149 5.52177,-3.083149 z"
       inkscape:connector-curvature="0"
       inkscape:export-filename="/home/matias/desktop/path4002-6-0.png"
       inkscape:export-xdpi="210.3"
       inkscape:export-ydpi="210.3" />
    <path
       style="fill:#aa0000"
       id="path3411"
       d="m 170.04829,47.680556 c 2.03162,-0.859373 4.14048,-1.466973 6.25318,-2.019566 4.13645,-0.994554 8.35662,-1.553036 12.59023,-1.567865 0.92108,-0.0032 1.84176,0.04405 2.76264,0.06607 3.8771,0.208554 7.74802,0.799258 11.40427,2.289272 0.61092,0.264281 1.09582,0.612803 1.51746,1.156675 0,0 -3.99819,2.667824 -3.99819,2.667824 l 0,0 c -0.31928,-0.490126 -0.73684,-0.784352 -1.23181,-1.045234 -3.47362,-1.627185 -7.22433,-2.219661 -10.97015,-2.422149 -0.91381,-0.01822 -1.82752,-0.06414 -2.74144,-0.05465 -4.28828,0.04452 -8.5572,0.694886 -12.72556,1.803174 -2.22059,0.64814 -4.45179,1.332216 -6.54975,2.38809 0,0 3.68912,-3.261643 3.68912,-3.261643 z"
       inkscape:connector-curvature="0"
       inkscape:export-filename="/home/matias/desktop/path4002-6-0.png"
       inkscape:export-xdpi="210.3"
       inkscape:export-ydpi="210.3" />
    <path
       style="fill:#aa0000"
       id="path3473"
       d="m 293.06384,19.267499 c -0.42438,2.043505 -0.61304,4.124165 -0.78509,6.200907 -0.31828,3.691552 -0.0507,7.315667 0.56709,10.957631 0.42745,2.081019 1.01092,4.151955 2.02744,6.030195 0.50635,0.9356 0.75662,1.215438 1.374,2.049703 1.14452,1.287601 2.03082,2.081084 3.7905,2.148093 1.62217,-0.187214 3.08169,-1.029619 4.45674,-1.857516 2.22316,-1.461184 4.19016,-3.296568 5.87526,-5.352439 0.40852,-0.498408 0.78659,-1.021015 1.17988,-1.531523 0.37642,-0.556084 1.5118,-2.220143 1.12926,-1.668254 -0.50597,0.729953 -0.79344,1.663721 -1.49955,2.20247 -0.54818,0.418257 0.67541,-1.202644 0.99198,-1.815202 0.91631,-1.773057 1.67518,-3.605503 2.41833,-5.455293 1.11654,-2.874911 1.9923,-5.830211 2.75636,-8.815146 0.32854,-1.273269 0.60671,-2.559403 0.74769,-3.867472 0,0 3.2736,-3.998735 3.2736,-3.998735 l 0,0 c -0.14376,1.374567 -0.44995,2.723108 -0.80645,4.057304 -0.81075,3.037577 -1.68815,6.056809 -2.82715,8.99131 -0.74021,1.867466 -1.49496,3.719652 -2.39872,5.516004 -0.31035,0.616862 -0.61112,1.240612 -0.97115,1.829858 -1.1783,1.92847 -2.40968,3.824183 -3.64128,5.719063 -0.37059,0.57017 -0.77638,1.116668 -1.16457,1.675003 -0.40515,0.512591 -0.79499,1.037669 -1.21546,1.537774 -1.75824,2.091249 -3.79448,3.959457 -6.08894,5.446932 -1.47724,0.874173 -3.03587,1.806392 -4.80143,1.837291 -0.2127,-0.02444 -0.42821,-0.03109 -0.63811,-0.07332 -1.44872,-0.291453 -2.52201,-1.348311 -3.43834,-2.438974 -0.61459,-0.855258 -0.90573,-1.203409 -1.41223,-2.154059 -1.03056,-1.934235 -1.62783,-4.058888 -2.07221,-6.193704 -0.63091,-3.622335 -0.94538,-7.288716 -0.71011,-10.967585 0.12454,-1.997129 0.26821,-3.992727 0.53055,-5.97705 0,0 3.35211,-4.033268 3.35211,-4.033268 z"
       inkscape:connector-curvature="0"
       inkscape:export-filename="/home/matias/desktop/path4002-6-0.png"
       inkscape:export-xdpi="210.3"
       inkscape:export-ydpi="210.3" />
    <path
       style="fill:#aa0000"
       id="path3567"
       d="m 332.62645,12.254685 c -0.12593,2.698722 -0.42056,5.376809 -0.77514,8.046279 -0.67659,4.61614 -1.44641,9.213286 -2.22094,13.808518 -0.53185,3.177928 -1.14321,6.338991 -1.58011,9.537085 -0.13445,1.128153 -0.26104,2.275559 -0.12289,3.410914 0.016,0.05618 0.032,0.112356 0.0479,0.168544 0,0 -4.54719,3.000361 -4.54719,3.000361 l 0,0 c -0.0259,-0.09352 -0.0518,-0.187035 -0.0777,-0.280552 -0.11785,-1.240338 0.0808,-2.478574 0.26511,-3.697933 0.56348,-3.256559 1.28018,-6.473883 1.87518,-9.722768 0.8166,-4.555881 1.58728,-9.125869 2.1544,-13.733556 0.27984,-2.551465 0.54215,-5.13552 0.36773,-7.710331 0,0 4.61356,-2.826561 4.61356,-2.826561 z"
       inkscape:connector-curvature="0"
       inkscape:export-filename="/home/matias/desktop/path4002-6-0.png"
       inkscape:export-xdpi="210.3"
       inkscape:export-ydpi="210.3" />
    <path
       style="fill:#aa0000"
       id="path3605"
       d="m 322.56899,49.137797 c 3.12678,-1.508831 4.3101,-2.431696 7.79669,-3.494166 1.37669,-0.419525 1.7636,-0.478328 3.22213,-0.809065 4.02523,-0.799083 8.19826,-0.800798 12.31445,-0.603755 2.78258,0.182838 5.55718,0.517558 8.23821,1.076269 0.7973,0.157433 1.54316,0.404779 2.28624,0.658114 l -5.87332,3.095616 0,0 c -0.68852,-0.237547 -1.36243,-0.498609 -2.09138,-0.671313 -2.5325,-0.60674 -5.16702,-0.985844 -7.8318,-1.15667 -4.09504,-0.19126 -8.23973,-0.123796 -12.20463,0.781036 -1.50172,0.382524 -1.84425,0.437883 -3.25463,0.916219 -0.44684,0.151547 -0.8845,0.317438 -1.31753,0.488889 -0.37327,0.147796 -1.45394,0.639755 -1.1003,0.46844 11.69197,-5.663883 6.09568,-2.898874 4.57292,-2.145438 z"
       inkscape:connector-curvature="0"
       sodipodi:nodetypes="cscccccccccssscc"
       inkscape:export-filename="/home/matias/desktop/path4002-6-0.png"
       inkscape:export-xdpi="210.3"
       inkscape:export-ydpi="210.3" />
    <path
       style="fill:#aa0000"
       id="path3607"
       d="m 374.92615,8.7672346 c -0.0916,3.0191184 -0.15461,6.0393684 -0.20672,9.0599554 -0.0881,5.400655 -0.0957,10.802683 -0.0735,16.204203 0.0198,3.827684 0.0669,7.655061 0.13863,11.48172 0.0141,1.407399 0.0517,2.812001 0.18408,4.209866 0,0 -4.52858,3.119556 -4.52858,3.119556 l 0,0 c -0.0791,-1.463376 -0.0639,-2.926275 -0.0167,-4.39166 0.0686,-3.892066 0.11915,-7.784637 0.14978,-11.677494 0.0374,-5.383604 0.0528,-10.767798 -0.006,-16.151274 -0.0368,-2.899706 -0.0464,-5.807376 -0.23349,-8.698887 0,0 4.59284,-3.1559854 4.59284,-3.1559854 z"
       inkscape:connector-curvature="0"
       inkscape:export-filename="/home/matias/desktop/path4002-6-0.png"
       inkscape:export-xdpi="210.3"
       inkscape:export-ydpi="210.3" />
    <path
       style="fill:#aa0000"
       id="path3611"
       d="m 353.29221,22.414061 c 2.81129,0.651606 5.64987,0.576189 8.47461,0.516126 5.70831,-0.30169 11.40939,-1.22639 17.06608,-2.789434 1.2134,-0.33528 2.4225,-0.729853 3.63377,-1.094779 5.20211,-1.61831 10.32891,-4.002095 15.40031,-6.799122 0,0 -3.07273,4.855723 -3.07273,4.855723 l 0,0 c -4.91923,2.33928 -9.87213,4.389653 -14.87535,5.8832 -6.9727,2.023972 -13.97618,3.618393 -21.01858,4.268362 -3.04656,0.261192 -6.09491,0.477671 -9.14488,0.365376 0,0 3.53677,-5.205452 3.53677,-5.205452 z"
       inkscape:connector-curvature="0"
       inkscape:export-filename="/home/matias/desktop/path4002-6-0.png"
       inkscape:export-xdpi="210.3"
       inkscape:export-ydpi="210.3" />
    <path
       style="fill:#aa0000"
       id="path3473-1"
       d="m 400.0129,19.361552 c -0.42438,2.043505 -0.61304,4.124165 -0.78509,6.200907 -0.31828,3.691552 -0.0507,7.315667 0.56709,10.957631 0.42745,2.081019 1.01092,4.151955 2.02744,6.030195 0.50635,0.9356 0.75662,1.215438 1.374,2.049703 1.14452,1.287601 2.03082,2.081084 3.7905,2.148093 1.62217,-0.187214 3.08169,-1.029619 4.45674,-1.857516 2.22316,-1.461184 4.19016,-3.296568 5.87526,-5.352439 0.40852,-0.498408 0.78659,-1.021015 1.17988,-1.531523 0.37642,-0.556084 1.5118,-2.220143 1.12926,-1.668254 -0.50597,0.729953 -0.79344,1.663721 -1.49955,2.20247 -0.54818,0.418257 0.67541,-1.202644 0.99198,-1.815202 0.91631,-1.773057 1.67518,-3.605503 2.41833,-5.455293 1.11654,-2.874911 1.9923,-5.830211 2.75636,-8.815146 0.32854,-1.273269 0.60671,-2.559403 0.74769,-3.867472 0,0 3.2736,-3.998735 3.2736,-3.998735 l 0,0 c -0.14376,1.374567 -0.44995,2.723108 -0.80645,4.057304 -0.81075,3.037577 -1.68815,6.056809 -2.82715,8.99131 -0.74021,1.867466 -1.49496,3.719652 -2.39872,5.516004 -0.31035,0.616862 -0.61112,1.240612 -0.97115,1.829858 -1.1783,1.92847 -2.40968,3.824183 -3.64128,5.719063 -0.37059,0.57017 -0.77638,1.116668 -1.16457,1.675003 -0.40515,0.512591 -0.79499,1.037669 -1.21546,1.537774 -1.75824,2.091249 -3.79448,3.959457 -6.08894,5.446932 -1.47724,0.874173 -3.03587,1.806392 -4.80143,1.837291 -0.2127,-0.02444 -0.42821,-0.03109 -0.63811,-0.07332 -1.44872,-0.291453 -2.52201,-1.348311 -3.43834,-2.438974 -0.61459,-0.855258 -0.90573,-1.203409 -1.41223,-2.154059 -1.03056,-1.934235 -1.62783,-4.058888 -2.07221,-6.193704 -0.63091,-3.622335 -0.94538,-7.288716 -0.71011,-10.967585 0.12454,-1.997129 0.26821,-3.992727 0.53055,-5.97705 0,0 3.35211,-4.033268 3.35211,-4.033268 z"
       inkscape:connector-curvature="0"
       inkscape:export-filename="/home/matias/desktop/path4002-6-0.png"
       inkscape:export-xdpi="210.3"
       inkscape:export-ydpi="210.3" />
    <path
       style="fill:#aa0000"
       id="path3840"
       d="m 258.03986,34.540114 c 1.36003,-1.770547 2.87801,-3.403455 4.4217,-5.010049 2.95538,-3.024112 6.24672,-5.672792 9.65404,-8.15413 4.03145,-2.727155 8.14867,-5.399953 12.56835,-7.448257 0.57481,-0.266395 1.16178,-0.505241 1.74267,-0.757862 2.85961,-1.239766 5.85921,-2.086801 8.92816,-2.582486 1.14174,-0.182851 2.29237,-0.204145 3.44298,-0.137044 l -3.89046,2.908449 0,0 c -1.07685,-0.07356 -2.1546,-0.05755 -3.22513,0.102731 -2.98811,0.476562 -5.90138,1.309151 -8.67903,2.530233 -1.65925,0.736174 -1.61028,0.706357 -3.23758,1.554286 -0.58982,0.307335 -2.3097,1.595275 -1.96413,1.02349 0.38898,-0.643605 2.63064,-1.696407 2.10342,-1.162232 -0.13399,0.135764 -4.84903,3.105468 -3.59569,2.339145 -3.37205,2.423515 -6.83526,4.977682 -9.73008,7.976064 -1.41592,1.504467 -2.84643,3.018659 -3.9876,4.752922 z"
       inkscape:connector-curvature="0"
       sodipodi:nodetypes="cccscccccccssscccc"
       inkscape:export-filename="/home/matias/desktop/path4002-6-0.png"
       inkscape:export-xdpi="210.3"
       inkscape:export-ydpi="210.3" />
    <path
       style="fill:#aa0000"
       id="path3844"
       d="m 262.50102,31.596581 c 1.49404,1.471786 3.06991,2.858079 4.62186,4.267978 2.75755,2.501464 5.54018,4.975633 8.35766,7.409428 1.59165,1.37315 3.19935,2.727204 4.83986,4.041431 0.29026,0.344326 0.70692,0.49753 1.06341,0.735244 0.0325,0.01667 0.0651,0.03334 0.0976,0.05 0,0 -4.36635,2.939165 -4.36635,2.939165 l 0,0 c -0.0361,-0.02221 -0.0721,-0.04441 -0.10822,-0.06662 -0.39404,-0.218724 -0.67656,-0.575943 -0.99116,-0.890626 -1.46777,-1.454742 -2.98825,-2.855864 -4.51221,-4.251178 -2.75245,-2.507327 -5.51969,-4.999631 -8.36817,-7.398074 -1.6419,-1.376244 -3.29336,-2.748024 -5.0365,-3.99537 0,0 4.40223,-2.841382 4.40223,-2.841382 z"
       inkscape:connector-curvature="0"
       inkscape:export-filename="/home/matias/desktop/path4002-6-0.png"
       inkscape:export-xdpi="210.3"
       inkscape:export-ydpi="210.3" />
    <path
       style="fill:#aa0000"
       id="path3856"
       d="m 258.34142,13.335248 c -0.16168,2.259558 -0.2582,4.523346 -0.35968,6.785682 -0.16418,4.324658 -0.54197,8.638641 -1.00637,12.945579 -0.38368,3.826462 -0.92291,7.63831 -1.42975,11.453149 -0.13521,1.120467 -0.27839,2.240181 -0.41945,3.360092 0,0 -4.39619,1.964496 -4.39619,1.964496 l 0,0 c 0.22283,-1.148737 0.44707,-2.297424 0.63149,-3.451497 0.65576,-3.837859 1.28073,-7.68051 1.67539,-11.546998 0.47086,-4.269314 0.84087,-8.550173 0.85185,-12.842042 0.005,-2.177395 0.0394,-4.360783 -0.16696,-6.532709 0,0 4.61967,-2.135752 4.61967,-2.135752 z"
       inkscape:connector-curvature="0"
       inkscape:export-filename="/home/matias/desktop/path4002-6-0.png"
       inkscape:export-xdpi="210.3"
       inkscape:export-ydpi="210.3" />
    <path
       style="fill:#aa0000"
       id="path3974"
       d="m 127.91948,16.581886 c -1.73487,0.828001 -3.48306,1.611066 -5.23412,2.386009 -3.3974,1.512884 -6.77089,3.106651 -10.15315,4.670328 -3.41065,1.544098 -6.73222,3.352678 -9.92272,5.496788 -3.57006,2.639823 0.96673,-0.723845 1.52613,-1.070905 0.39598,-0.245679 -0.72799,0.624977 -1.08212,0.954117 -0.96217,0.89428 -1.82097,1.885649 -2.67029,2.935603 -1.38312,1.75534 -2.215421,3.483113 -2.684851,5.853412 -0.274704,1.697092 -0.0547,3.343119 0.55667,4.879972 0.768301,1.60636 1.988291,2.691365 3.238901,3.671077 1.6855,1.277321 3.60073,1.841543 5.52403,2.265646 2.66265,0.475801 5.3615,0.471546 8.04467,0.383124 1.9748,-0.123042 3.95338,-0.3059 5.89879,-0.763318 1.07299,-0.252287 1.57205,-0.441188 2.6187,-0.785969 1.02724,-0.428564 1.27651,-0.490497 2.24145,-1.052543 0.32807,-0.191099 1.27397,-0.855918 0.96526,-0.62064 -6.99288,5.329362 -3.52625,2.70585 -2.5665,1.719893 0.23571,-0.242143 0.44925,-0.515477 0.67387,-0.773214 1.13614,-1.464409 1.76089,-3.287828 2.12505,-5.235548 0.081,-0.984786 0.37861,-2.275848 -0.14475,-3.150271 -0.0549,-0.03421 -0.10517,-0.0838 -0.16475,-0.102683 -0.259,-0.0821 -0.58746,-0.03192 -0.84986,-0.03726 -0.29442,-0.0059 -0.58864,-0.02237 -0.88301,-0.03078 -1.23477,-0.03465 -2.46675,-0.164976 -3.69953,-0.25651 -1.04218,-0.07858 -2.08578,-0.116245 -3.12978,-0.118313 -0.66535,0.0025 -1.33049,0.02271 -1.99562,0.04115 -0.6069,0.02013 -1.21398,0.02173 -1.82103,0.01776 -0.94403,0.0023 -1.88661,0.127563 -2.82705,0.224778 -0.4049,0.0827 -0.85469,0.142964 -1.22801,0.3783 -0.0966,0.06087 -0.35722,0.302944 -0.26362,0.235359 4.1901,-3.02551 5.22983,-4.571174 3.9722,-2.774133 -0.45394,1.385324 -0.67518,2.881774 -0.96098,4.332876 -0.22222,1.125868 -0.11468,0.572384 -0.32298,1.660351 0,0 -4.5425,2.802215 -4.5425,2.802215 l 0,0 c 0.22494,-1.09864 0.11057,-0.541169 0.3431,-1.672405 0.28924,-1.457514 0.52251,-2.930712 0.78898,-4.392941 0.66671,-2.762408 3.98794,-4.12408 6.28911,-4.416498 0.96482,-0.09621 1.92956,-0.226258 2.8984,-0.229993 0.60957,-0.01129 1.21914,-0.02398 1.82871,-0.0355 0.65918,-0.01129 1.31872,-0.02171 1.97775,0.0043 1.02763,0.04371 2.05447,0.112017 3.08032,0.198852 1.24184,0.09871 2.48476,0.214764 3.73014,0.192425 0.77692,0.0099 1.65416,-0.121634 2.23212,0.645915 0.54129,1.118661 0.36455,2.445116 0.21429,3.679357 -0.35663,2.042827 -0.94651,3.990933 -2.06633,5.597185 -2.00243,2.541064 -3.49239,3.226058 -6.49651,5.381472 -0.99185,0.711638 -2.12439,1.099125 -3.21019,1.512688 -2.8007,0.845083 -5.65148,1.310764 -8.53668,1.398383 -2.73649,0.08365 -5.48967,0.104146 -8.20481,-0.389207 -1.99294,-0.447509 -3.96428,-1.061473 -5.703803,-2.400848 -1.331509,-1.045002 -2.626919,-2.20315 -3.443689,-3.915597 -0.66299,-1.661615 -0.94131,-3.438782 -0.675849,-5.285718 0.44192,-2.533573 1.222079,-4.315006 2.666479,-6.217881 0.67862,-0.861117 0.96037,-1.253103 1.703621,-2.051947 2.614431,-2.809993 5.724481,-4.778624 8.695881,-6.942264 3.18771,-2.067862 6.49294,-3.823235 9.87506,-5.34937 3.43012,-1.593757 6.85047,-3.219533 10.28555,-4.796881 1.86421,-0.862931 3.72278,-1.74312 5.54882,-2.724335 0,0 -4.05897,4.074208 -4.05897,4.074208 z"
       inkscape:connector-curvature="0"
       inkscape:export-filename="/home/matias/desktop/path4002-6-0.png"
       inkscape:export-xdpi="210.3"
       inkscape:export-ydpi="210.3" />
    <path
       style="fill:#aa0000"
       id="path4194-3"
       d="m 223.17143,17.833793 c -0.53137,3.939519 -1.20147,7.848589 -1.92855,11.744485 -0.98488,5.315525 -2.3877,10.503395 -3.84243,15.663985 -0.69567,2.406131 -0.35449,1.256765 -1.01966,3.449642 0,0 -4.84685,2.733396 -4.84685,2.733396 l 0,0 c 0.78369,-2.235132 0.38732,-1.063155 1.1823,-3.51907 1.58102,-5.128483 3.06183,-10.311124 3.98729,-15.663575 0.64018,-3.733369 1.26861,-7.494544 1.37322,-11.31092 0,0 5.09468,-3.097943 5.09468,-3.097943 z"
       inkscape:connector-curvature="0"
       inkscape:export-filename="/home/matias/desktop/path4002-6-0.png"
       inkscape:export-xdpi="210.3"
       inkscape:export-ydpi="210.3" />
    <path
       style="fill:#aa0000"
       id="path4002-6"
       d="m 216.05317,19.796282 c 1.62636,-1.328995 3.29019,-2.629516 5.07032,-3.632319 0.33518,-0.18882 0.67715,-0.359196 1.01572,-0.538794 2.36859,-1.169517 4.84621,-1.985344 7.36137,-2.523988 0.57639,-0.123442 1.15669,-0.218119 1.73502,-0.327178 2.69447,-0.411208 5.4427,-0.553117 8.13923,-0.07375 0.44738,0.07953 0.88913,0.200538 1.33368,0.300808 1.73912,0.522623 3.43204,1.389399 4.76549,2.884372 0.20276,0.227329 0.38174,0.484329 0.57262,0.726492 0.73401,1.091451 1.22715,2.393898 1.23354,3.825002 0.001,0.266728 -0.0279,0.532376 -0.0419,0.798563 -0.19082,1.515529 -0.74279,2.929721 -1.52212,4.129409 -0.18453,0.284055 -0.39351,0.543149 -0.59026,0.814725 -0.74537,0.901216 -1.58757,1.674154 -2.48454,2.336957 -1.08605,0.802527 -2.1758,1.598246 -3.28018,2.362667 -0.71714,0.496381 -1.52141,0.893255 -2.27494,1.292975 -2.31236,1.201995 -4.71822,2.087867 -7.16667,2.763234 -1.71192,0.449867 -3.4567,0.613461 -5.20406,0.558741 -0.84083,-0.0346 -1.67458,-0.20164 -2.48812,-0.458203 0.20089,-0.0882 -0.34389,-0.0097 -0.26776,-0.0713 2.87098,-2.321643 1.975,-2.636052 3.58975,-0.996645 2.02607,2.059983 4.07618,4.084235 6.14511,6.079724 2.43717,2.375074 4.96877,4.597853 7.52912,6.769331 0.68603,0.558288 1.36123,1.149244 2.09793,1.606663 l -2.50434,2.014394 0,0 c -0.56557,-0.670485 -1.23559,-1.201296 -1.82548,-1.83731 -2.42176,-2.352184 -4.90351,-4.610915 -7.3567,-6.913789 -2.13568,-1.969703 -4.26177,-3.958129 -6.46162,-5.821038 -0.34813,-0.284887 -0.53911,-0.45114 -0.8807,-0.700142 -0.0773,-0.05629 -0.303,-0.08698 -0.23588,-0.160043 2.34721,-2.554601 1.46609,-2.542263 2.59019,-2.060746 0.75781,0.288071 1.54772,0.432766 2.33951,0.483516 1.68693,0.08248 3.37247,-0.06162 5.02582,-0.499948 2.42859,-0.669963 4.81287,-1.558034 7.0978,-2.776084 0.39118,-0.215085 0.7871,-0.417821 1.17357,-0.645253 0.55107,-0.3243 2.61344,-1.718926 -0.11778,0.241574 -0.31426,0.225585 0.62103,-0.467129 0.92109,-0.719863 0.27897,-0.234975 0.55147,-0.482 0.81489,-0.742328 0.24327,-0.24042 0.46923,-0.505764 0.70385,-0.758647 0.19509,-0.25671 0.40227,-0.500487 0.58525,-0.770133 0.76824,-1.132109 1.31735,-2.483439 1.53425,-3.929778 0.0189,-0.251558 0.0516,-0.502137 0.0569,-0.754673 0.0279,-1.355529 -0.41112,-2.600375 -1.08337,-3.656939 -0.17747,-0.236511 -0.34276,-0.487516 -0.5324,-0.709533 -1.26087,-1.476163 -2.89142,-2.329252 -4.5634,-2.852241 -0.43073,-0.102941 -0.85849,-0.226448 -1.29217,-0.308821 -2.65332,-0.503968 -5.36272,-0.362992 -8.0149,0.06329 -0.57877,0.114874 -1.15974,0.214341 -1.73632,0.344624 -2.56524,0.579643 -5.08562,1.467036 -7.48174,2.730975 -0.35128,0.199309 -0.70629,0.389086 -1.05383,0.597929 -1.11164,0.668022 -1.15445,0.09931 0.75257,-0.638133 0.33027,-0.127717 -0.47994,0.335204 -0.74991,0.560681 -0.069,0.05765 0.0851,0.01584 0.0172,0.07541 l -2.99072,1.515565 z"
       inkscape:connector-curvature="0"
       sodipodi:nodetypes="cscscccccccscssccccccccccccccccccccsssscscccscscsccscccc"
       inkscape:export-xdpi="210.3"
       inkscape:export-ydpi="210.3" />
    <path
       style="fill:#aa0000"
       id="path4194-3-0"
       d="m 439.21628,17.866254 c -0.53137,3.939519 -1.20147,7.848589 -1.92855,11.744485 -0.98488,5.315525 -2.3877,10.503395 -3.84243,15.663985 -0.69567,2.406131 -0.35449,1.256765 -1.01966,3.449642 0,0 -4.84685,2.733396 -4.84685,2.733396 l 0,0 c 0.78369,-2.235132 0.38732,-1.063155 1.1823,-3.51907 1.58102,-5.128483 3.06183,-10.311124 3.98729,-15.663575 0.64018,-3.733369 1.26861,-7.494544 1.37322,-11.31092 0,0 5.09468,-3.097943 5.09468,-3.097943 z"
       inkscape:connector-curvature="0"
       inkscape:export-filename="/home/matias/desktop/path4002-6-0.png"
       inkscape:export-xdpi="210.3"
       inkscape:export-ydpi="210.3" />
    <path
       style="fill:#aa0000"
       id="path4002-6-0"
       d="m 431.63155,19.799131 c 1.62636,-1.328995 3.29019,-2.629516 5.07032,-3.632319 0.33518,-0.18882 0.67715,-0.359196 1.01572,-0.538794 2.36859,-1.169517 4.84621,-1.985344 7.36137,-2.523988 0.57639,-0.123442 1.15669,-0.218119 1.73502,-0.327178 2.69447,-0.411208 5.4427,-0.553117 8.13923,-0.07375 0.44738,0.07953 0.88913,0.200538 1.33368,0.300808 1.73912,0.522623 3.43204,1.389399 4.76549,2.884372 0.20276,0.227329 0.38174,0.484329 0.57262,0.726492 0.73401,1.091451 1.22715,2.393898 1.23354,3.825002 10e-4,0.266728 -0.0279,0.532376 -0.0419,0.798563 -0.19082,1.515529 -0.74279,2.929721 -1.52212,4.129409 -0.18453,0.284055 -0.39351,0.543149 -0.59026,0.814725 -0.74537,0.901216 -1.58757,1.674154 -2.48454,2.336957 -1.08605,0.802527 -2.1758,1.598246 -3.28018,2.362667 -0.71714,0.496381 -1.52141,0.893255 -2.27494,1.292975 -2.31236,1.201995 -4.71822,2.087867 -7.16667,2.763234 -1.71192,0.449867 -3.4567,0.613461 -5.20406,0.558741 -0.84083,-0.0346 -1.67458,-0.20164 -2.48812,-0.458203 0.20089,-0.0882 -0.34389,-0.0097 -0.26776,-0.0713 2.87098,-2.321643 1.975,-2.636052 3.58975,-0.996645 2.02607,2.059983 4.07618,4.084235 6.14511,6.079724 2.43717,2.375073 4.96877,4.597853 7.52912,6.769333 0.68603,0.55829 1.36123,1.14924 2.09793,1.60666 l -2.50434,2.01439 0,0 c -0.56557,-0.67048 -1.23559,-1.20129 -1.82548,-1.83731 -2.42176,-2.35218 -4.90351,-4.61091 -7.3567,-6.913784 -2.13568,-1.969703 -4.26177,-3.958129 -6.46162,-5.821038 -0.34813,-0.284887 -0.53911,-0.45114 -0.8807,-0.700142 -0.0773,-0.05629 -0.303,-0.08698 -0.23588,-0.160043 2.34721,-2.554601 1.46609,-2.542263 2.59019,-2.060746 0.75781,0.288071 1.54772,0.432766 2.33951,0.483516 1.68693,0.08248 3.37247,-0.06162 5.02582,-0.499948 2.42859,-0.669963 4.81287,-1.558034 7.0978,-2.776084 0.39118,-0.215085 0.7871,-0.417821 1.17357,-0.645253 0.55107,-0.3243 2.61344,-1.718926 -0.11778,0.241574 -0.31426,0.225585 0.62103,-0.467129 0.92109,-0.719863 0.27897,-0.234975 0.55147,-0.482 0.81489,-0.742328 0.24327,-0.24042 0.46923,-0.505764 0.70385,-0.758647 0.19509,-0.25671 0.40227,-0.500487 0.58525,-0.770133 0.76824,-1.132109 1.31735,-2.483439 1.53425,-3.929778 0.0189,-0.251558 0.0516,-0.502137 0.0569,-0.754673 0.0279,-1.355529 -0.41112,-2.600375 -1.08337,-3.656939 -0.17747,-0.236511 -0.34276,-0.487516 -0.5324,-0.709533 -1.26087,-1.476163 -2.89142,-2.329252 -4.5634,-2.852241 -0.43073,-0.102941 -0.85849,-0.226448 -1.29217,-0.308821 -2.65332,-0.503968 -5.36272,-0.362992 -8.0149,0.06329 -0.57877,0.114874 -1.15974,0.214341 -1.73632,0.344624 -2.56524,0.579643 -5.08562,1.467036 -7.48174,2.730975 -0.35128,0.199309 -0.70629,0.389086 -1.05383,0.597929 -1.11164,0.668022 -1.15445,0.09931 0.75257,-0.638133 0.33027,-0.127717 -0.47994,0.335204 -0.74991,0.560681 -0.069,0.05765 0.0851,0.01584 0.0172,0.07541 l -2.99072,1.515565 z"
       inkscape:connector-curvature="0"
       sodipodi:nodetypes="cscscccccccscssccccccccccccccccccccsssscscccscscsccscccc"
       inkscape:export-xdpi="210.3"
       inkscape:export-ydpi="210.3" />
  </g>
</svg>
